<svg width="96" height="96" viewBox="0 0 96 96" fill="none" xmlns="http://www.w3.org/2000/svg">
<path d="M67.9909 59.2195C67.9926 58.461 67.9926 57.7042 67.9926 56.9457V56.2831C67.9943 55.7719 67.9943 55.2606 67.9909 54.751C67.9859 54.1692 67.5924 53.6646 67.034 53.5267C66.9331 53.5015 66.8322 53.4931 66.7246 53.4847C66.7094 53.483 66.6926 53.4813 66.6758 53.4813V48.2914C66.6758 43.6414 66.6758 38.9913 66.6741 34.3413C66.6741 33.4718 66.4605 32.6881 66.0384 32.0154C64.9907 30.3387 63.462 29.4844 61.4927 29.481C55.213 29.4659 48.8291 29.4676 42.6554 29.4676C39.7594 29.4676 36.8617 29.4693 33.9641 29.4676H34.1222C33.3435 29.4676 32.5968 29.6156 31.9073 29.9065C29.948 30.7339 28.7876 32.4661 28.8028 34.5381C28.8246 37.4963 28.8162 40.5049 28.8095 43.4144L28.8061 44.4654C28.8028 46.0059 29.901 46.9326 30.9235 47.1394C31.3237 47.2202 31.581 47.2336 31.983 47.2471C32.1427 47.2521 32.3008 47.2572 32.4589 47.2656C32.5985 47.274 32.7414 47.2723 32.8793 47.2689C32.9012 47.2689 33.0307 47.2689 33.0526 47.2672V50.5399H32.6624C32.2806 50.5399 31.8972 50.5416 31.5154 50.5433C30.6191 50.5467 29.8741 50.5517 28.9625 50.5332C28.5455 50.5298 28.1772 50.6644 27.9148 50.9234C27.6457 51.1891 27.5061 51.5608 27.5078 51.9997C27.528 54.8772 27.5246 57.8034 27.5213 60.6321C27.5196 61.6748 27.5196 62.7192 27.5196 63.7619V64.2328C27.5179 64.6162 27.5179 64.9996 27.523 65.3814C27.5314 66.0625 27.8862 66.5031 28.5472 66.6528C28.7237 66.6932 28.9188 66.7117 29.1442 66.7117C40.612 66.7133 51.8949 66.7133 63.3628 66.7133H66.3109H66.395C66.4235 66.7133 66.4538 66.715 66.4824 66.715C66.511 66.715 66.5396 66.715 66.5699 66.7133C67.4595 66.6747 68.0078 66.1146 67.9993 65.2519C67.9842 63.2439 67.9876 61.1972 67.9909 59.2195ZM65.4952 55.94V64.2008H41.0661V55.94H65.4952ZM33.0576 55.5835C33.0593 56.1923 33.3183 56.6464 33.8665 56.8246C34.4501 57.013 34.8352 56.8818 35.2102 56.4984C35.4289 56.2747 35.5331 56.0006 35.5331 55.6609C35.5298 54.8704 35.5315 54.0783 35.5331 53.2879C35.5331 53.2038 35.5382 53.1181 35.5432 53.0306L35.5449 53.0003C35.5735 52.9953 35.6912 52.9919 35.7165 52.9919C36.5102 52.9902 37.3023 52.9902 38.0911 52.9902H38.5704L38.5872 64.2008H35.5197C35.5146 64.1234 35.4911 62.1844 35.5163 61.6311C35.5315 61.2931 35.4121 60.9718 35.18 60.7229C34.9294 60.4539 34.6923 60.3025 34.3071 60.2941C33.954 60.2891 33.6799 60.4135 33.4343 60.6523C33.1804 60.8978 33.0391 61.2426 33.0374 61.621C33.0324 62.1575 33.0341 62.694 33.0341 63.2304V64.2059H30.0187V53.0087H33.0559V53.969C33.0559 54.5089 33.0559 55.047 33.0576 55.5835ZM31.3035 34.4203C31.3019 32.9925 32.395 32.1046 33.4764 31.965C33.7791 31.9263 34.0868 31.9061 34.3896 31.9061C42.5023 31.9028 52.132 31.9011 61.4624 31.9061C62.5236 31.9061 63.3325 32.3182 63.869 33.1288C64.1044 33.487 64.2104 33.9091 64.2087 34.4994C64.2053 36.1929 64.2053 37.8848 64.2053 39.5783V53.478H51.8108V50.6896C51.8108 46.3574 51.8108 42.0269 51.8091 37.6913C51.8091 37.5047 51.8091 37.3113 51.7553 37.128C51.6124 36.6369 51.1448 36.2787 50.5932 36.2383C50.5461 36.235 50.499 36.235 50.452 36.2366H50.4032H47.7746C44.8971 36.2366 42.018 36.2366 39.1405 36.2366C38.3871 36.2366 37.8489 36.6487 37.7379 37.3096C37.7194 37.4155 37.7211 37.5215 37.7211 37.6241V37.6897V44.2014V44.2805C37.7211 44.3494 37.7211 44.4184 37.7194 44.4856C37.711 44.7648 37.6858 44.7917 37.4201 44.7968C37.2468 44.8001 37.0753 44.8001 36.9021 44.7984H36.6666L31.7374 44.8001C31.3405 44.8001 31.3035 44.7631 31.3035 44.3545V40.964C31.3052 38.7778 31.3069 36.5999 31.3035 34.4203ZM41.0644 52.5496C41.0644 52.4723 41.0644 52.3949 41.0661 52.3159C41.0678 52.1056 41.0711 51.8887 41.0459 51.6734C40.9669 50.9957 40.496 50.5652 39.8149 50.5483C39.1977 50.5332 37.3965 50.5366 36.1941 50.5383H35.5466V47.2656H35.6593C35.7535 47.2656 35.8409 47.2656 35.9284 47.2656C36.1218 47.2622 36.3135 47.2622 36.5069 47.2605C36.9441 47.2588 37.2183 47.2572 37.6622 47.2235C38.8916 47.131 40.2118 46.09 40.2 44.5731C40.1899 43.2613 40.1933 41.926 40.1966 40.6344C40.1983 40.0778 40.1983 39.5211 40.2 38.9628V38.6836H49.3403V53.4679H41.0678V53.2644C41.0661 53.0256 41.0661 52.7868 41.0644 52.5496Z" fill="white"/>
<path d="M57.9153 43.0105C58.7746 43.0105 59.6374 42.7381 60.3336 42.1781C61.5142 41.2279 61.9128 39.7395 61.3477 38.3857C60.8045 37.0824 59.375 36.2365 57.7067 36.2297H57.7034C57.0206 36.2415 56.2638 36.5072 55.6281 36.9579C54.8461 37.5129 54.3533 38.3252 54.2406 39.2451C54.1313 40.1415 54.4004 41.0177 54.9974 41.7139C55.7323 42.5699 56.8204 43.0105 57.9153 43.0105ZM56.6758 39.6571C56.6708 39.3864 56.7969 39.1055 57.0239 38.8852C57.2695 38.6481 57.584 38.5186 57.9035 38.5304C58.556 38.5539 59.1177 39.0803 59.1059 39.6571C59.0942 40.2323 58.551 40.6981 57.8968 40.6981C57.8951 40.6981 57.8934 40.6981 57.8917 40.6981C57.2325 40.6965 56.6876 40.2289 56.6758 39.6571Z" fill="white"/>
<path d="M60.5805 47.242C60.335 47.1411 60.0793 47.1159 59.9078 47.1109C59.2452 47.0957 56.625 47.0991 55.9843 47.1075C55.7673 47.1109 55.5655 47.1361 55.3856 47.1832C54.9164 47.3076 54.5397 47.7415 54.4909 48.2141C54.4388 48.722 54.7028 49.1844 55.167 49.393C55.4041 49.5006 55.6782 49.5612 55.9422 49.5628C56.5594 49.5696 57.18 49.5729 57.7989 49.5729C58.3169 49.5729 58.8315 49.5713 59.3394 49.5696L59.8288 49.5679C59.9969 49.5679 60.1601 49.5511 60.3165 49.5208C60.8395 49.4182 61.2582 48.9877 61.3104 48.4966C61.3676 47.9332 61.0901 47.4522 60.5805 47.242Z" fill="white"/>
</svg>
