<svg width="51" height="32" viewBox="0 0 51 32" fill="none" xmlns="http://www.w3.org/2000/svg">
<path d="M5.99222 27.307C6.8688 27.3122 7.74537 27.3104 8.62195 27.3104H10.242L10.2817 27.428C11.2033 30.1528 13.6912 31.4807 15.7487 31.5861C18.9922 31.7521 21.2433 30.3534 22.4414 27.428L22.4846 27.3208H32.1218L32.165 27.4297C33.2542 30.2082 35.2546 31.6155 38.1091 31.6155C38.1126 31.6155 38.1178 31.6155 38.1212 31.6155C41.0795 31.6121 43.1369 30.2012 44.2348 27.4211L44.278 27.3122H46.0485C47.0322 27.3122 48.016 27.3139 48.9998 27.3104C49.8521 27.3087 50.4279 26.752 50.4296 25.9256C50.4365 23.6503 50.4348 21.3369 50.4331 19.0997L50.4313 16.6446C50.4313 16.2901 50.3155 15.9858 50.0786 15.7127C49.8314 15.4291 46.8438 12.3879 46.6761 12.0888C45.1598 9.38991 43.7351 6.60458 42.1998 3.79677C41.8454 3.14668 41.363 2.85795 40.6368 2.85795C40.6334 2.85795 40.6282 2.85795 40.6247 2.85795C39.1534 2.86486 37.9034 2.86314 36.458 2.86141L33.7626 2.85968V2.68678C33.7626 2.52426 33.7626 2.36693 33.7643 2.21305C33.766 1.87591 33.766 1.63213 33.7608 1.31227C33.7539 0.930173 33.5914 0.610318 33.2785 0.364808C32.9672 0.119297 32.5834 0 32.108 0C23.3993 0 15.0398 -9.497e-07 6.33282 0.001728C6.1046 0.001728 5.87811 0.019018 5.66199 0.0535969C5.0707 0.148689 4.57967 0.65354 4.54509 1.20335C4.50706 1.81539 4.89607 2.28048 5.49256 2.44473C5.76227 2.51908 6.05792 2.52945 6.28441 2.52945C13.278 2.53291 20.2716 2.53291 27.2617 2.53291H31.2469V8.93347C31.2469 9.30519 31.2469 9.67519 31.2452 10.0469C31.2435 10.9667 31.2418 11.9159 31.2521 12.8513C31.259 13.51 31.7587 14.0615 32.4157 14.1359C32.6699 14.1653 32.9413 14.1791 33.2439 14.1791C36.9663 14.1825 40.8167 14.1843 44.6013 14.1739C44.6031 14.1739 44.6048 14.1739 44.6065 14.1739C44.98 14.1739 45.2358 14.2915 45.4623 14.5664C45.4623 14.5664 47.0322 16.017 47.6391 16.7172L47.6737 16.757C47.812 16.916 47.8881 17.12 47.8881 17.331C47.8846 18.9129 47.9244 24.7741 47.9244 24.7741H44.2815L44.2417 24.596C43.2337 21.5306 40.5193 20.3791 38.5016 20.3255C35.4137 20.2425 33.2663 21.6672 32.1252 24.5597L32.082 24.7723H22.4985C22.4708 24.6306 22.4293 24.4888 22.374 24.3539C21.2744 21.6966 19.2671 20.3376 16.4074 20.3151C16.3832 20.3151 16.359 20.3151 16.3365 20.3151C13.444 20.3151 11.4782 21.6914 10.3578 24.4093C10.3111 24.5217 10.2748 24.6392 10.2472 24.7568H8.76891C7.90444 24.7568 7.03996 24.7551 6.17376 24.7602C5.94727 24.762 5.75536 24.7793 5.58765 24.8173C5.14677 24.9176 4.78542 25.1493 4.6229 25.5504C4.47421 25.9152 4.51224 26.3111 4.72318 26.6344C5.01018 27.0805 5.4355 27.3035 5.99222 27.307ZM33.7885 11.6358V5.42889C33.7885 5.42889 38.7938 5.3995 39.6825 5.39431C40.0041 5.39086 40.2115 5.50669 40.3602 5.77814C41.0483 7.03508 41.7572 8.38712 42.4401 9.61986L43.5138 11.6341H33.7885V11.6358ZM34.646 25.5158C34.7204 24.7464 35.0956 24.1188 35.7923 23.5984C36.4995 23.0711 37.3363 22.8186 38.2768 22.8498C39.3349 22.8843 40.2184 23.2595 40.9014 23.9632C41.4616 24.5389 41.7382 25.2098 41.7261 25.955C41.7555 27.4003 40.5833 28.678 38.9408 28.9927C38.6486 29.048 38.3616 29.0774 38.0849 29.0774C37.1444 29.0774 36.2937 28.7558 35.5486 28.1179C34.8207 27.4937 34.5337 26.6673 34.646 25.5158ZM12.7939 25.8132C12.8077 24.9452 13.2936 24.1361 14.1598 23.5344C15.5982 22.5368 17.6626 22.663 18.961 23.8266C20.1506 24.8916 20.282 26.5497 19.274 27.7686C18.598 28.5864 17.5399 29.0532 16.3953 29.0532C16.2881 29.0532 16.1809 29.0498 16.0737 29.0411C14.8168 28.946 13.7241 28.3011 13.1518 27.3174C12.9115 26.9059 12.8043 26.4563 12.7939 25.8184V25.8132Z" fill="white"/>
<path d="M18.2535 5.99253C18.072 5.93548 17.8576 5.90609 17.6155 5.90609C16.4502 5.90263 13.6286 5.89917 10.8294 5.89917C8.05275 5.89917 5.29508 5.9009 4.19374 5.90782C3.90155 5.90954 3.61973 5.96141 3.40015 6.05478C2.96792 6.23805 2.67918 6.60977 2.62731 7.04892C2.57545 7.49499 2.77255 7.93069 3.1581 8.2125C3.43819 8.41825 3.78225 8.51507 4.24215 8.51507H7.36636C10.7499 8.51507 14.1334 8.51507 17.517 8.51334C17.7193 8.51334 17.9164 8.49432 18.1048 8.45456C18.691 8.33526 19.1422 7.84769 19.1751 7.29789C19.2114 6.69276 18.85 6.18099 18.2535 5.99253Z" fill="white"/>
<path d="M16.5339 13.1901C16.6428 12.7631 16.5287 12.3879 16.1863 12.0421C15.8907 11.743 15.5 11.6099 14.9208 11.6099C14.9208 11.6099 14.9208 11.6099 14.919 11.6099L9.99326 11.6116C7.22176 11.6116 4.45198 11.6116 1.68048 11.615C1.4903 11.615 1.28974 11.6341 1.08572 11.6686C0.558396 11.762 0.0984959 12.215 0.0172355 12.725C-0.0726698 13.2869 0.193587 13.7831 0.712271 14.02C0.980258 14.1428 1.30357 14.2137 1.59749 14.2171C3.82956 14.2344 12.7284 14.2292 14.945 14.2223C15.1161 14.2223 15.3668 14.2137 15.5864 14.1462C16.1016 13.9872 16.4094 13.676 16.5339 13.1901Z" fill="white"/>
<path d="M12.8711 18.7973C12.942 18.1921 12.553 17.6198 11.9444 17.4366C11.7628 17.3812 11.5415 17.3553 11.2666 17.3536C9.41491 17.3484 7.56321 17.3501 5.71151 17.3501H4.38886H4.25919C4.21597 17.3501 4.17275 17.3501 4.13125 17.3501C4.04653 17.3501 3.96354 17.3519 3.88228 17.357C3.44659 17.3864 3.04547 17.6198 2.81379 17.9795C2.60113 18.3097 2.55272 18.7022 2.68412 19.0583C2.87258 19.5684 3.38608 19.9159 3.96181 19.9211C5.26025 19.9332 11.1024 19.9384 11.6072 19.9176C12.2348 19.8899 12.8002 19.3886 12.8711 18.7973Z" fill="white"/>
</svg>
