<svg width="49" height="48" viewBox="0 0 49 48" fill="none" xmlns="http://www.w3.org/2000/svg">
<path d="M9.43151 26.3071C9.02725 26.637 8.66669 26.928 8.30795 27.2227C7.53949 27.8547 6.70002 27.7398 6.12458 26.9131C4.18704 24.1329 2.25133 21.3528 0.317433 18.5707C-0.21794 17.8015 -0.0722606 17.0657 0.725335 16.6005C3.81374 14.7989 6.90032 12.9936 10.0051 11.2217C10.3966 10.9975 10.8847 10.927 11.3399 10.8436C13.8602 10.3765 16.3913 9.95766 18.9043 9.45722C19.8512 9.26817 20.7672 8.90489 21.6959 8.62317C22.0801 8.5064 22.4644 8.38778 22.8522 8.28213C23.0726 8.22282 23.1654 8.11161 23.1582 7.86695C23.1418 7.25902 23.1418 6.65108 23.1582 6.04314C23.18 5.24986 23.679 4.76611 24.4583 4.70494C24.7206 4.68456 25.0065 4.61783 25.2268 4.48068C25.8787 4.07662 25.8842 3.25924 25.2669 2.80329C24.6368 2.33807 23.6699 2.55122 23.3566 3.23144C23.2984 3.35748 23.2802 3.50761 23.2656 3.64847C23.2037 4.27309 22.8176 4.72904 22.2167 4.87176C21.6522 5.00706 21.0294 4.74572 20.7381 4.23602C20.5068 3.83011 20.5523 3.38343 20.6488 2.96084C20.9985 1.42988 22.0055 0.516116 23.4532 0.145423C24.8098 -0.203028 26.0772 0.0712847 27.1734 1.00543C28.7486 2.34548 28.7996 4.78094 27.2518 6.15621C26.8967 6.47129 26.4469 6.67703 26.0499 6.94578C25.9588 7.00695 25.8514 7.11815 25.8423 7.21453C25.8168 7.52777 25.8332 7.84471 25.8332 8.18019C26.7473 8.46006 27.6451 8.71213 28.5283 9.00683C30.2965 9.59623 32.1338 9.84089 33.9512 10.1893C35.428 10.4729 36.9085 10.7231 38.3853 11.0067C38.633 11.0549 38.8861 11.1606 39.0991 11.2996C42.1329 13.305 45.1594 15.3216 48.1877 17.3344C48.2642 17.3845 48.3389 17.4364 48.4135 17.4901C49.0782 17.9813 49.1893 18.6801 48.6885 19.3436C47.9073 20.3815 47.1152 21.4102 46.3248 22.4426C45.1831 23.9328 44.0413 25.4211 42.8977 26.9094C42.224 27.7861 41.5047 27.8788 40.616 27.2097C40.2864 26.9613 39.955 26.7185 39.5617 26.4257C39.5617 26.6351 39.5617 26.776 39.5617 26.915C39.5617 33.4207 39.5635 39.9245 39.5635 46.4301C39.5635 47.5237 39.1046 48 38.0302 48C33.5487 48 16.0399 47.9907 11.766 47.9889C11.4291 47.9889 11.0904 47.9778 10.7535 47.9796C10.1344 47.9833 9.4224 47.4792 9.42422 46.6266C9.43697 40.4119 9.43151 34.1991 9.43151 27.9844C9.43151 27.4525 9.43151 26.915 9.43151 26.3071ZM45.7549 18.8524C45.6875 18.795 45.6529 18.7579 45.611 18.7301C43.2674 17.1695 40.9274 15.6052 38.5765 14.0575C38.1486 13.7758 37.7461 13.4607 37.1998 13.3699C35.6666 13.1197 34.1424 12.812 32.6146 12.5284C32.0064 12.4154 31.3963 12.3116 30.7918 12.2041C29.4825 15.1993 27.3555 16.7117 24.431 16.6375C21.4228 16.5597 19.294 15.1251 18.1668 12.2078C18.1176 12.2096 18.0393 12.2041 17.9647 12.2189C15.9616 12.584 13.9585 12.9454 11.9572 13.3217C11.6422 13.381 11.3071 13.4403 11.034 13.5979C8.54832 15.0213 6.07359 16.467 3.59522 17.909C3.47686 17.9776 3.36578 18.0591 3.23831 18.1426C4.71331 20.2574 6.15918 22.3332 7.61415 24.4221C7.75255 24.3109 7.85635 24.2312 7.9565 24.1496C8.61206 23.6084 9.25851 23.0561 9.92136 22.5278C10.3693 22.172 10.8774 22.1294 11.3873 22.374C11.8971 22.6187 12.1229 23.0579 12.1138 23.6251C12.112 23.7437 12.1138 23.8623 12.1138 23.9828C12.1138 30.9778 12.1138 37.9728 12.1138 44.9677C12.1138 45.1086 12.1138 45.2513 12.1138 45.42C20.3939 45.42 28.6302 45.42 36.8903 45.42C36.8903 45.2217 36.8903 45.0641 36.8903 44.9066C36.8903 39.6427 36.8903 34.3807 36.8903 29.1169C36.8903 27.3709 36.883 25.6268 36.8848 23.8809C36.8866 23.184 37.3164 22.6817 37.9847 22.5575C38.4235 22.476 38.8005 22.6094 39.1483 22.8744C39.8858 23.4323 40.6288 23.9847 41.3863 24.5537C42.8486 22.6465 44.2981 20.7541 45.7549 18.8524ZM28.1113 11.5591C26.9968 11.218 25.8842 10.8714 24.7643 10.5434C24.5913 10.4933 24.3819 10.4915 24.2071 10.5415C23.3967 10.7695 22.5918 11.0197 21.7869 11.2662C21.4719 11.3626 21.1605 11.4738 20.8473 11.5794C21.3463 13.2327 22.9251 14.1928 24.9045 14.0872C26.3649 14.0056 27.86 12.8361 28.1113 11.5591Z" fill="white"/>
</svg>
