<svg width="47" height="43" viewBox="0 0 47 43" fill="none" xmlns="http://www.w3.org/2000/svg">
<path d="M3.0279 41.2471C3.03175 39.6471 3.26088 38.0606 3.70758 36.5298C4.56055 33.607 6.12785 30.9884 8.36906 28.7511C8.85812 28.262 9.38569 27.8095 9.89593 27.3706C10.1289 27.1703 10.3619 26.9701 10.5929 26.766L10.9183 26.4771L12.2257 27.6767C14.6152 29.8698 20.2124 35.0068 22.1686 36.7878C22.8329 37.3924 23.7282 37.3963 24.3964 36.7994C25.3225 35.9695 34.374 27.5746 35.1576 26.8179L35.4079 26.5753L35.7776 26.7698C35.8181 26.7891 35.8623 26.8122 35.9143 26.8507C40.7972 30.6053 43.3388 35.4593 43.4659 41.2799C43.4697 41.4705 43.5025 41.6515 43.5583 41.7863C43.8298 42.4448 44.5518 42.8183 45.2777 42.672C46.0286 42.5218 46.5081 41.9461 46.4984 41.2067C46.4773 39.5816 46.2943 38.0991 45.942 36.6704C45.064 33.1122 43.2733 29.916 40.622 27.1703C38.2268 24.6903 35.3482 22.8284 31.8189 21.4749C31.6456 21.4075 31.4685 21.3478 31.2817 21.2823C31.1893 21.2496 31.093 21.2169 30.9929 21.1822L30.2555 20.9223L30.8735 20.3292C30.9236 20.2792 30.9621 20.2426 31.0025 20.2118C31.8632 19.561 32.5795 18.8601 33.1937 18.0707C35.1133 15.5984 35.8758 12.9876 35.5235 10.0879C35.1596 7.08803 33.7097 4.58689 31.2163 2.65182C28.3647 0.439501 25.0029 -0.39421 21.2213 0.171868C17.9519 0.660928 15.2814 2.17239 13.2808 4.66005C11.2437 7.19392 10.4928 10.0744 11.0512 13.2205C11.469 15.583 12.6551 17.6644 14.5786 19.4069C14.8096 19.6149 15.0561 19.8171 15.316 20.0289C15.445 20.1348 15.5779 20.2426 15.7146 20.3562L16.3442 20.8799L15.4585 21.2226C15.3796 21.2534 15.318 21.2785 15.2525 21.2997C12.8014 22.1257 10.5544 23.3021 8.57123 24.7962C5.09389 27.4187 2.60623 30.7112 1.17948 34.5832C0.370802 36.7744 -0.023911 39.0213 0.00111965 41.2606C0.00304508 41.4512 0.0242263 41.6014 0.062735 41.7208C0.28416 42.3909 1.00042 42.7875 1.76674 42.6643C2.51766 42.5468 3.02598 41.9769 3.0279 41.2471ZM15.1235 15.5715C13.2885 12.6679 13.5543 8.89408 15.7858 6.18115C17.4244 4.18832 19.6059 3.04076 22.2688 2.77505C25.0722 2.49394 27.5579 3.25449 29.6528 5.03551C31.6976 6.77418 32.7027 8.98265 32.6392 11.5974C32.591 13.6114 31.8459 15.404 30.4249 16.9251C28.5091 18.9776 26.1293 19.9518 22.935 19.9904H22.9215H22.908C19.5539 19.8459 16.8602 18.3191 15.1235 15.5715ZM14.2051 24.6923C17.149 23.3579 20.1181 22.711 23.2815 22.711C23.2835 22.711 23.2854 22.711 23.2892 22.711C26.4412 22.711 29.4102 23.3599 32.3619 24.6942L33.0262 24.9946L23.2835 33.9344L13.5408 24.9946L14.2051 24.6923Z" fill="white"/>
</svg>
